<svg width="800px" height="800px" viewBox="0 0 1024 1024" class="icon"  version="1.1" xmlns="http://www.w3.org/2000/svg"><path d="M854.2 368v333.8c0 17-14 30.9-31.3 30.9H171.8c-17.2 0-31.3-13.8-31.3-30.9V368c0-17 14-30.8 31.3-30.8h112.3c-80.7-20.5-98.6-60.1-99.4-62-11.4-24.2-9-52.1 6.3-74.5 17.5-25.5 49-39.2 83.9-36.6 18.3 1.4 33 8.7 43.9 21.8 7.2 8.6 12 18.9 15.1 29.3 3.2-10.4 8-20.7 15.2-29.3 10.9-13.1 25.7-20.4 43.9-21.8 35-2.6 66.4 11.1 83.9 36.6 15.4 22.4 17.7 50.3 6.2 74.7-0.6 1.6-17 41.3-97.4 61.8h437.1c17.4 0 31.4 13.9 31.4 30.8z m-10.5 333.8V596.4l-149 125.7H823c11.4 0 20.7-9.1 20.7-20.3z m0-119.2v-47.5l-227.6 187h62.2l165.4-139.5z m0-61.2V368c0-11.2-9.3-20.3-20.8-20.3H358.6L151.1 520.3v181.5c0 11.2 9.3 20.3 20.7 20.3h427.6l244.3-200.7zM472.4 270.7c9.8-20.9 7.8-44.5-5.2-63.3-13.9-20.2-38.2-31.8-65.9-31.8-2.5 0-5 0.1-7.5 0.3-14.9 1.1-26.9 7-35.7 17.6-15.6 18.8-18.2 48.1-18.3 65.1v0.6c0 7.6 0.5 12.6 0.5 12.7l-0.2 25 1.5 36.8c109.9-14.4 130.6-62.5 130.8-63zM151.1 506.5l191-158.8h-56.4l-134.5 114v44.8z m177.4-209.9l-0.9-24c0-0.4 0.5-5.5 0.5-13.1v-1.2c-0.1-17.3-2.8-46.3-18.3-64.9-8.8-10.5-20.8-16.5-35.7-17.6-2.5-0.2-5-0.3-7.5-0.3-27.7 0-52 11.6-65.9 31.8-13 18.9-15 42.4-5.3 63 0.3 0.7 22.9 48.8 132.7 63.2l0.4-36.9zM151.1 448l118.2-100.2h-97.5c-11.4 0-20.7 9.1-20.7 20.3V448z" fill="#FF2497" /><path d="M843.7 596.4v105.4c0 11.2-9.3 20.3-20.8 20.3H694.7l149-125.7z" fill="#3BADAB" /><path d="M843.7 535.1v47.5L678.3 722.1h-62.2z" fill="#FF2497" /><path d="M843.7 368v153.4L599.5 722.1H171.8c-11.4 0-20.7-9.1-20.7-20.3V520.3l207.4-172.5h464.4c11.5 0 20.8 9 20.8 20.2z" fill="#3BADAB" /><path d="M342.1 347.8l-191 158.7v-44.7l134.6-114z" fill="#FF2497" /><path d="M269.3 347.8L151.1 448v-80c0-11.2 9.3-20.3 20.7-20.3h97.5z" fill="#3BADAB" /></svg>
